<svg width="16" height="16" viewBox="0 0 16 16" fill="none" xmlns="http://www.w3.org/2000/svg">
<mask id="path-1-inside-1_1_15573" fill="white">
<path d="M12.4001 3.19995C12.9305 3.19995 13.4392 3.41066 13.8143 3.78574C14.1894 4.16081 14.4001 4.66952 14.4001 5.19995V11.6C14.4001 12.1304 14.1894 12.6391 13.8143 13.0142C13.4392 13.3892 12.9305 13.6 12.4001 13.6H3.6001C3.06966 13.6 2.56096 13.3892 2.18588 13.0142C1.81081 12.6391 1.6001 12.1304 1.6001 11.6V5.19995C1.6001 4.66952 1.81081 4.16081 2.18588 3.78574C2.56096 3.41066 3.06966 3.19995 3.6001 3.19995H12.4001ZM13.6001 6.36875L8.2033 9.54475C8.15228 9.57471 8.09524 9.59297 8.03631 9.59823C7.97738 9.60349 7.91802 9.5956 7.8625 9.57515L7.7969 9.54475L2.4001 6.37035V11.6C2.4001 11.9182 2.52653 12.2234 2.75157 12.4485C2.97661 12.6735 3.28184 12.8 3.6001 12.8H12.4001C12.7184 12.8 13.0236 12.6735 13.2486 12.4485C13.4737 12.2234 13.6001 11.9182 13.6001 11.6V6.36875ZM12.4001 3.99995H3.6001C3.28184 3.99995 2.97661 4.12638 2.75157 4.35142C2.52653 4.57647 2.4001 4.88169 2.4001 5.19995V5.44155L8.0001 8.73595L13.6001 5.43995V5.19995C13.6001 4.88169 13.4737 4.57647 13.2486 4.35142C13.0236 4.12638 12.7184 3.99995 12.4001 3.99995Z"/>
</mask>
<path d="M12.4001 3.19995C12.9305 3.19995 13.4392 3.41066 13.8143 3.78574C14.1894 4.16081 14.4001 4.66952 14.4001 5.19995V11.6C14.4001 12.1304 14.1894 12.6391 13.8143 13.0142C13.4392 13.3892 12.9305 13.6 12.4001 13.6H3.6001C3.06966 13.6 2.56096 13.3892 2.18588 13.0142C1.81081 12.6391 1.6001 12.1304 1.6001 11.6V5.19995C1.6001 4.66952 1.81081 4.16081 2.18588 3.78574C2.56096 3.41066 3.06966 3.19995 3.6001 3.19995H12.4001ZM13.6001 6.36875L8.2033 9.54475C8.15228 9.57471 8.09524 9.59297 8.03631 9.59823C7.97738 9.60349 7.91802 9.5956 7.8625 9.57515L7.7969 9.54475L2.4001 6.37035V11.6C2.4001 11.9182 2.52653 12.2234 2.75157 12.4485C2.97661 12.6735 3.28184 12.8 3.6001 12.8H12.4001C12.7184 12.8 13.0236 12.6735 13.2486 12.4485C13.4737 12.2234 13.6001 11.9182 13.6001 11.6V6.36875ZM12.4001 3.99995H3.6001C3.28184 3.99995 2.97661 4.12638 2.75157 4.35142C2.52653 4.57647 2.4001 4.88169 2.4001 5.19995V5.44155L8.0001 8.73595L13.6001 5.43995V5.19995C13.6001 4.88169 13.4737 4.57647 13.2486 4.35142C13.0236 4.12638 12.7184 3.99995 12.4001 3.99995Z" fill="black"/>
<path d="M12.4001 3.19995V1.49995V3.19995ZM13.6001 6.36875H15.3001V3.39577L12.7379 4.90363L13.6001 6.36875ZM8.2033 9.54475L9.06403 11.0107L9.06552 11.0099L8.2033 9.54475ZM7.8625 9.57515L7.14772 11.1176L7.2102 11.1465L7.27483 11.1703L7.8625 9.57515ZM7.7969 9.54475L6.935 11.0101L7.00667 11.0522L7.08212 11.0872L7.7969 9.54475ZM2.4001 6.37035L3.26199 4.90504L0.700098 3.39813V6.37035H2.4001ZM3.6001 12.8V14.5V12.8ZM12.4001 12.8V14.5V12.8ZM2.4001 5.44155H0.700098V6.41382L1.53811 6.90681L2.4001 5.44155ZM8.0001 8.73595L7.13811 10.2012L8.00031 10.7084L8.8624 10.201L8.0001 8.73595ZM13.6001 5.43995L14.4624 6.90502L15.3001 6.41198V5.43995H13.6001ZM13.6001 5.19995H15.3001H13.6001ZM12.4001 4.89995C12.4797 4.89995 12.556 4.93156 12.6122 4.98782L15.0164 2.58366C14.3225 1.88977 13.3814 1.49995 12.4001 1.49995V4.89995ZM12.6122 4.98782C12.6685 5.04408 12.7001 5.12039 12.7001 5.19995H16.1001C16.1001 4.21865 15.7103 3.27754 15.0164 2.58366L12.6122 4.98782ZM12.7001 5.19995V11.6H16.1001V5.19995H12.7001ZM12.7001 11.6C12.7001 11.6795 12.6685 11.7558 12.6122 11.8121L15.0164 14.2162C15.7103 13.5224 16.1001 12.5813 16.1001 11.6H12.7001ZM12.6122 11.8121C12.556 11.8683 12.4797 11.9 12.4001 11.9V15.3C13.3814 15.3 14.3225 14.9101 15.0164 14.2162L12.6122 11.8121ZM12.4001 11.9H3.6001V15.3H12.4001V11.9ZM3.6001 11.9C3.52053 11.9 3.44423 11.8683 3.38797 11.8121L0.983803 14.2162C1.67769 14.9101 2.6188 15.3 3.6001 15.3V11.9ZM3.38797 11.8121C3.3317 11.7558 3.3001 11.6795 3.3001 11.6H-0.0999024C-0.0999024 12.5813 0.289918 13.5224 0.983803 14.2162L3.38797 11.8121ZM3.3001 11.6V5.19995H-0.0999024V11.6H3.3001ZM3.3001 5.19995C3.3001 5.12039 3.3317 5.04408 3.38797 4.98782L0.983803 2.58366C0.289918 3.27754 -0.0999024 4.21865 -0.0999024 5.19995H3.3001ZM3.38797 4.98782C3.44423 4.93156 3.52053 4.89995 3.6001 4.89995V1.49995C2.6188 1.49995 1.67769 1.88977 0.983803 2.58366L3.38797 4.98782ZM3.6001 4.89995H12.4001V1.49995H3.6001V4.89995ZM12.7379 4.90363L7.34108 8.07963L9.06552 11.0099L14.4623 7.83387L12.7379 4.90363ZM7.34257 8.07876C7.50839 7.9814 7.69374 7.92204 7.88527 7.90495L8.18736 11.2915C8.49675 11.2639 8.79617 11.168 9.06403 11.0107L7.34257 8.07876ZM7.88527 7.90495C8.0768 7.88787 8.26974 7.91349 8.45017 7.97996L7.27483 11.1703C7.5663 11.2777 7.87796 11.3191 8.18736 11.2915L7.88527 7.90495ZM8.57728 8.03272L8.51168 8.00232L7.08212 11.0872L7.14772 11.1176L8.57728 8.03272ZM8.65879 8.07944L3.26199 4.90504L1.5382 7.83566L6.935 11.0101L8.65879 8.07944ZM0.700098 6.37035V11.6H4.1001V6.37035H0.700098ZM0.700098 11.6C0.700098 12.3691 1.00563 13.1067 1.54949 13.6506L3.95365 11.2464C4.04742 11.3402 4.1001 11.4673 4.1001 11.6H0.700098ZM1.54949 13.6506C2.09334 14.1944 2.83097 14.5 3.6001 14.5V11.1C3.73271 11.1 3.85988 11.1526 3.95365 11.2464L1.54949 13.6506ZM3.6001 14.5H12.4001V11.1H3.6001V14.5ZM12.4001 14.5C13.1692 14.5 13.9069 14.1944 14.4507 13.6506L12.0465 11.2464C12.1403 11.1526 12.2675 11.1 12.4001 11.1V14.5ZM14.4507 13.6506C14.9946 13.1067 15.3001 12.3691 15.3001 11.6H11.9001C11.9001 11.4673 11.9528 11.3402 12.0465 11.2464L14.4507 13.6506ZM15.3001 11.6V6.36875H11.9001V11.6H15.3001ZM12.4001 2.29995H3.6001V5.69995H12.4001V2.29995ZM3.6001 2.29995C2.83097 2.29995 2.09334 2.60549 1.54949 3.14934L3.95365 5.5535C3.85988 5.64727 3.73271 5.69995 3.6001 5.69995V2.29995ZM1.54949 3.14934C1.00563 3.6932 0.700098 4.43082 0.700098 5.19995H4.1001C4.1001 5.33256 4.04742 5.45974 3.95365 5.5535L1.54949 3.14934ZM0.700098 5.19995V5.44155H4.1001V5.19995H0.700098ZM1.53811 6.90681L7.13811 10.2012L8.86209 7.2707L3.26209 3.9763L1.53811 6.90681ZM8.8624 10.201L14.4624 6.90502L12.7378 3.97488L7.1378 7.27088L8.8624 10.201ZM15.3001 5.43995V5.19995H11.9001V5.43995H15.3001ZM15.3001 5.19995C15.3001 4.43082 14.9946 3.6932 14.4507 3.14934L12.0465 5.5535C11.9528 5.45974 11.9001 5.33256 11.9001 5.19995H15.3001ZM14.4507 3.14934C13.9069 2.60549 13.1692 2.29995 12.4001 2.29995V5.69995C12.2675 5.69995 12.1403 5.64727 12.0465 5.5535L14.4507 3.14934Z" fill="black" mask="url(#path-1-inside-1_1_15573)"/>
</svg>
