<svg width="32" height="32" viewBox="0 0 32 32" fill="none" xmlns="http://www.w3.org/2000/svg">
<path d="M27.8999 8.48004C23.7199 2.00004 15.1599 0.0800357 8.53991 4.10004C2.0799 8.12004 -9.58443e-05 16.88 4.1799 23.34L4.5199 23.86L3.1199 29.1L8.35991 27.7L8.87991 28.04C11.1399 29.26 13.5999 29.96 16.0399 29.96C18.6599 29.96 21.2799 29.26 23.5399 27.86C29.9999 23.66 31.9199 15.08 27.8999 8.44004V8.48004ZM24.2399 21.96C23.5399 23 22.6599 23.7 21.4399 23.88C20.7399 23.88 19.8599 24.22 16.3799 22.84C13.4199 21.44 10.9599 19.16 9.21991 16.54C8.17991 15.32 7.63991 13.74 7.47991 12.16C7.47991 10.76 7.99991 9.54004 8.87991 8.66004C9.21991 8.32004 9.57991 8.14004 9.91991 8.14004H10.7999C11.1399 8.14004 11.4999 8.14004 11.6799 8.84004C12.0199 9.72004 12.8999 11.82 12.8999 12C13.0799 12.18 12.9999 13.52 12.1999 14.28C11.7599 14.78 11.6799 14.8 11.8599 15.16C12.5599 16.2 13.4399 17.26 14.2999 18.14C15.3399 19.02 16.3999 19.72 17.6199 20.24C17.9599 20.42 18.3199 20.42 18.4999 20.06C18.6799 19.72 19.5399 18.84 19.8999 18.48C20.2399 18.14 20.4199 18.14 20.7799 18.3L23.5799 19.7C23.9199 19.88 24.2799 20.04 24.4599 20.22C24.6399 20.74 24.6399 21.44 24.2799 21.96H24.2399Z" fill="#5EC76B"/>
</svg>
