<svg width="45" height="45" viewBox="0 0 45 45" fill="none" xmlns="http://www.w3.org/2000/svg">
<rect width="45" height="45" rx="22.5" fill="#F8F8F8"/>
<path d="M28.6349 17.7953L29.1349 17.2441C29.5331 16.8059 30.0731 16.5597 30.6363 16.5596C31.1995 16.5595 31.7396 16.8055 32.1379 17.2435C32.5362 17.6814 32.76 18.2755 32.7601 18.895C32.7602 19.5144 32.5366 20.1086 32.1385 20.5467L31.6384 21.0979M28.6349 17.7953C28.6349 17.7953 28.6975 18.9643 29.6361 19.9966C30.5746 21.029 31.6384 21.0979 31.6384 21.0979M28.6349 17.7953L24.034 22.8562C23.7208 23.1983 23.5653 23.3706 23.4313 23.5595C23.2736 23.7828 23.1386 24.0228 23.0274 24.2794C22.9334 24.4956 22.8643 24.7249 22.725 25.1846L22.2789 26.6578L22.1342 27.1342M31.6384 21.0979L27.0375 26.1588C26.7243 26.5033 26.5688 26.6744 26.3971 26.8217C26.194 26.9952 25.9759 27.1437 25.7426 27.266C25.546 27.3694 25.3376 27.4454 24.9196 27.5987L23.5804 28.0893L23.1473 28.2485M22.1342 27.1342L21.9906 27.6117C21.9571 27.7226 21.9524 27.8415 21.9768 27.9551C22.0013 28.0688 22.054 28.1727 22.1291 28.2553C22.2042 28.3379 22.2987 28.3959 22.402 28.4228C22.5053 28.4497 22.6134 28.4445 22.7142 28.4077L23.1473 28.2485M22.1342 27.1342L23.1473 28.2485" stroke="black" stroke-width="1.08"/>
<path d="M17.6401 23.688H20.3402M17.6401 18.936H24.6602M17.6401 28.44H19.2601M30.4146 12.0123C29.1499 10.62 27.113 10.62 23.0402 10.62H20.8802C16.8074 10.62 14.7705 10.62 13.5058 12.0123C12.24 13.4035 12.24 15.644 12.24 20.124V24.876C12.24 29.3559 12.24 31.5965 13.5058 32.9877C14.7705 34.38 16.8074 34.38 20.8802 34.38H23.0402C27.113 34.38 29.1499 34.38 30.4146 32.9877C31.4341 31.8674 31.6318 30.1982 31.6707 27.252" stroke="black" stroke-width="1.08" stroke-linecap="round"/>
</svg>
