<svg width="45" height="45" viewBox="0 0 45 45" fill="none" xmlns="http://www.w3.org/2000/svg">
<circle cx="22.5" cy="22.5" r="22.5" fill="#F8F8F8"/>
<mask id="path-2-inside-1_1_15444" fill="white">
<path d="M26.4397 21.5632V21.5747V21.5632ZM14.0024 18.552C13.4473 18.1649 13.021 17.646 12.7705 17.0528C12.5201 16.4595 12.4553 15.815 12.5833 15.1904C12.7113 14.5658 13.0271 13.9855 13.4958 13.5136C13.9646 13.0417 14.568 12.6966 15.2394 12.5165C15.9107 12.3363 16.6239 12.3281 17.3001 12.4927C17.9763 12.6573 18.5892 12.9884 19.071 13.4493C19.5528 13.9103 19.8847 14.4831 20.0302 15.1045C20.1756 15.726 20.1289 16.3718 19.8952 16.9706"/>
</mask>
<path d="M26.4397 21.5632V21.5747V21.5632ZM14.0024 18.552C13.4473 18.1649 13.021 17.646 12.7705 17.0528C12.5201 16.4595 12.4553 15.815 12.5833 15.1904C12.7113 14.5658 13.0271 13.9855 13.4958 13.5136C13.9646 13.0417 14.568 12.6966 15.2394 12.5165C15.9107 12.3363 16.6239 12.3281 17.3001 12.4927C17.9763 12.6573 18.5892 12.9884 19.071 13.4493C19.5528 13.9103 19.8847 14.4831 20.0302 15.1045C20.1756 15.726 20.1289 16.3718 19.8952 16.9706" fill="#F8F8F8"/>
<path d="M27.5647 21.5632C27.5647 20.9419 27.061 20.4382 26.4397 20.4382C25.8184 20.4382 25.3147 20.9419 25.3147 21.5632H27.5647ZM25.3147 21.5747C25.3147 22.196 25.8184 22.6997 26.4397 22.6997C27.061 22.6997 27.5647 22.196 27.5647 21.5747H25.3147ZM13.3589 19.4748C13.8685 19.8302 14.5698 19.7052 14.9252 19.1956C15.2806 18.6859 15.1556 17.9847 14.646 17.6293L13.3589 19.4748ZM18.8472 16.5615C18.6212 17.1403 18.9073 17.7927 19.4861 18.0186C20.0649 18.2445 20.7172 17.9585 20.9432 17.3797L18.8472 16.5615ZM25.3147 21.5632V21.5747H27.5647V21.5632H25.3147ZM14.646 17.6293C14.2557 17.3571 13.9705 17.0027 13.807 16.6152L11.7341 17.4903C12.0714 18.2893 12.639 18.9727 13.3589 19.4748L14.646 17.6293ZM13.807 16.6152C13.644 16.2292 13.6035 15.8158 13.6854 15.4163L11.4812 14.9645C11.3071 15.8142 11.3962 16.6899 11.7341 17.4903L13.807 16.6152ZM13.6854 15.4163C13.7675 15.0158 13.9726 14.63 14.294 14.3064L12.6977 12.7208C12.0817 13.341 11.6551 14.1158 11.4812 14.9645L13.6854 15.4163ZM14.294 14.3064C14.6163 13.9819 15.0424 13.7341 15.5309 13.603L14.9478 11.4299C14.0936 11.6591 13.3128 12.1015 12.6977 12.7208L14.294 14.3064ZM15.5309 13.603C16.0197 13.4719 16.5411 13.4658 17.034 13.5858L17.5662 11.3996C16.7068 11.1904 15.8018 11.2007 14.9478 11.4299L15.5309 13.603ZM17.034 13.5858C17.5268 13.7057 17.9608 13.9442 18.2933 14.2622L19.8487 12.6364C19.2176 12.0327 18.4259 11.6089 17.5662 11.3996L17.034 13.5858ZM18.2933 14.2622C18.6249 14.5795 18.8414 14.9617 18.9348 15.3609L21.1256 14.8482C20.9281 14.0045 20.4807 13.241 19.8487 12.6364L18.2933 14.2622ZM18.9348 15.3609C19.028 15.7591 18.9988 16.173 18.8472 16.5615L20.9432 17.3797C21.259 16.5706 21.3233 15.6928 21.1256 14.8482L18.9348 15.3609Z" fill="black" mask="url(#path-2-inside-1_1_15444)"/>
<path d="M22.3002 17.4508L27.1431 14.5211V17.8917C27.1431 18.1007 27.259 18.2925 27.4441 18.3897C28.899 19.1536 29.9933 20.3552 30.5458 21.7681C30.6301 21.9838 30.838 22.1257 31.0696 22.1257H32.7669C32.97 22.1257 33.1552 22.1995 33.2838 22.3162C33.4106 22.4312 33.47 22.5749 33.47 22.7117V25.0085C33.47 25.1453 33.4106 25.289 33.2838 25.404C33.1552 25.5207 32.97 25.5945 32.7669 25.5945H31.0684C30.8366 25.5945 30.6285 25.7367 30.5443 25.9527C30.1563 26.9482 29.4941 27.8459 28.6151 28.5606C28.4837 28.6675 28.4075 28.8278 28.4075 28.9971V31.325C28.4075 31.614 28.2814 31.9037 28.0359 32.1265C27.7887 32.3509 27.4425 32.4851 27.0715 32.4851C26.7005 32.4851 26.3544 32.3509 26.1071 32.1265C25.8617 31.9037 25.7356 31.614 25.7356 31.325V30.6554C25.7356 30.4915 25.6641 30.3357 25.5397 30.2288C25.4154 30.122 25.2507 30.0747 25.0886 30.0993C24.6984 30.1586 24.3034 30.1884 23.9077 30.1882H23.9075H18.845H18.8448C18.449 30.1884 18.054 30.1586 17.6639 30.0993C17.5018 30.0747 17.337 30.122 17.2127 30.2288C17.0884 30.3357 17.0169 30.4915 17.0169 30.6554V31.325C17.0169 31.614 16.8908 31.9037 16.6453 32.1265C16.398 32.3509 16.0519 32.4851 15.6809 32.4851C15.3099 32.4851 14.9638 32.3509 14.7165 32.1265C14.471 31.9037 14.345 31.614 14.345 31.325V28.9971C14.345 28.8275 14.2685 28.667 14.1369 28.5602C13.0772 27.7006 12.3385 26.5763 12.0078 25.3407C11.6774 24.106 11.7675 22.8095 12.2683 21.6198C12.7694 20.429 13.6615 19.395 14.8359 18.6614C16.0107 17.9275 17.4088 17.5318 18.8449 17.532H18.845H22.009C22.1117 17.532 22.2124 17.5039 22.3002 17.4508Z" fill="#F8F8F8" stroke="black" stroke-width="1.125" stroke-linecap="round" stroke-linejoin="round"/>
</svg>
