<svg width="16" height="16" viewBox="0 0 16 16" fill="none" xmlns="http://www.w3.org/2000/svg">
<mask id="path-1-inside-1_1_15569" fill="white">
<path d="M13.2576 12.1359L13.6103 12.4905L13.2569 12.1359H13.2576ZM4.8536 10.6985L5.2056 10.3439L4.85294 10.6985H4.8536ZM2.10294 3.63721L1.75094 3.28321L2.1036 3.63788L2.10294 3.63721ZM10.0616 10.1412L10.3663 9.83921L9.66027 9.12988L9.3576 9.43188L10.0616 10.1412ZM11.3856 9.71255L12.6596 10.4052L13.1363 9.52655L11.8629 8.83455L11.3856 9.71255ZM12.9043 11.7812L11.9576 12.7232L12.6623 13.4319L13.6089 12.4905L12.9043 11.7812ZM11.3803 13.0259C10.4136 13.1165 7.9136 13.0359 5.2056 10.3439L4.50027 11.0525C7.45494 13.9905 10.2676 14.1345 11.4736 14.0219L11.3796 13.0259H11.3803ZM5.2056 10.3439C2.62494 7.77721 2.19694 5.61921 2.1436 4.68255L1.14494 4.73921C1.2116 5.91788 1.7416 8.30988 4.50027 11.0525L5.2056 10.3439ZM6.12227 6.22388L6.3136 6.03321L5.6096 5.32455L5.41827 5.51455L6.12294 6.22321L6.12227 6.22388ZM6.4656 3.60988L5.6256 2.48721L4.82494 3.08721L5.66494 4.20921L6.4656 3.60988ZM2.79827 2.24255L1.7516 3.28255L2.45694 3.99188L3.50294 2.95188L2.79827 2.24255ZM5.77027 5.86921C5.41694 5.51455 5.41694 5.51455 5.41694 5.51588H5.41561L5.4136 5.51855C5.38213 5.55067 5.35378 5.58572 5.32894 5.62321C5.29294 5.67655 5.2536 5.74655 5.22027 5.83521C5.13909 6.06409 5.11887 6.31016 5.1616 6.54921C5.25094 7.12588 5.64827 7.88788 6.66561 8.89988L7.37094 8.19055C6.41827 7.24388 6.19161 6.66788 6.1496 6.39588C6.1296 6.26655 6.15027 6.20255 6.15627 6.18788C6.15961 6.17855 6.16094 6.17788 6.15627 6.18388C6.15039 6.19313 6.1437 6.20183 6.13627 6.20988L6.1296 6.21655C6.12745 6.21862 6.12523 6.22062 6.12294 6.22255L5.7696 5.86921H5.77027ZM6.66561 8.89988C7.68361 9.91188 8.4496 10.3065 9.02694 10.3945C9.32227 10.4399 9.56027 10.4039 9.74094 10.3365C9.84197 10.2992 9.93646 10.2461 10.0209 10.1792C10.0324 10.1696 10.0435 10.1596 10.0543 10.1492L10.0589 10.1452L10.0609 10.1432L10.0616 10.1419C10.0616 10.1419 10.0623 10.1412 9.70961 9.78655C9.35627 9.43188 9.35827 9.43121 9.35827 9.43121L9.3596 9.42988L9.36094 9.42855L9.36494 9.42521L9.3716 9.41855C9.37962 9.41135 9.38808 9.40467 9.39694 9.39855C9.4036 9.39388 9.4016 9.39588 9.39227 9.39988C9.3756 9.40588 9.31027 9.42655 9.17894 9.40655C8.90294 9.36388 8.32294 9.13721 7.37094 8.19055L6.66561 8.89988ZM5.6256 2.48655C4.9456 1.57988 3.6096 1.43588 2.79827 2.24255L3.50294 2.95188C3.8576 2.59921 4.48694 2.63588 4.82494 3.08721L5.62494 2.48655H5.6256ZM2.14427 4.68321C2.13094 4.45255 2.23694 4.21121 2.45694 3.99255L1.75094 3.28321C1.39294 3.63921 1.11094 4.14321 1.14494 4.73921L2.14427 4.68321ZM11.9576 12.7232C11.7749 12.9059 11.5776 13.0085 11.3809 13.0265L11.4736 14.0219C11.9636 13.9759 12.3643 13.7292 12.6629 13.4325L11.9576 12.7232ZM6.3136 6.03321C6.97027 5.38055 7.01894 4.34921 6.46627 3.61055L5.66561 4.20988C5.93427 4.56921 5.89427 5.04055 5.60894 5.32521L6.3136 6.03321ZM12.6603 10.4059C13.2049 10.7019 13.2896 11.3992 12.9049 11.7819L13.6103 12.4905C14.5036 11.6019 14.2283 10.1199 13.1369 9.52721L12.6603 10.4059ZM10.3663 9.83988C10.6223 9.58521 11.0343 9.52255 11.3863 9.71321L11.8636 8.83521C11.1409 8.44188 10.2449 8.55055 9.66094 9.13055L10.3663 9.83988Z"/>
</mask>
<path d="M13.2576 12.1359L13.6103 12.4905L13.2569 12.1359H13.2576ZM4.8536 10.6985L5.2056 10.3439L4.85294 10.6985H4.8536ZM2.10294 3.63721L1.75094 3.28321L2.1036 3.63788L2.10294 3.63721ZM10.0616 10.1412L10.3663 9.83921L9.66027 9.12988L9.3576 9.43188L10.0616 10.1412ZM11.3856 9.71255L12.6596 10.4052L13.1363 9.52655L11.8629 8.83455L11.3856 9.71255ZM12.9043 11.7812L11.9576 12.7232L12.6623 13.4319L13.6089 12.4905L12.9043 11.7812ZM11.3803 13.0259C10.4136 13.1165 7.9136 13.0359 5.2056 10.3439L4.50027 11.0525C7.45494 13.9905 10.2676 14.1345 11.4736 14.0219L11.3796 13.0259H11.3803ZM5.2056 10.3439C2.62494 7.77721 2.19694 5.61921 2.1436 4.68255L1.14494 4.73921C1.2116 5.91788 1.7416 8.30988 4.50027 11.0525L5.2056 10.3439ZM6.12227 6.22388L6.3136 6.03321L5.6096 5.32455L5.41827 5.51455L6.12294 6.22321L6.12227 6.22388ZM6.4656 3.60988L5.6256 2.48721L4.82494 3.08721L5.66494 4.20921L6.4656 3.60988ZM2.79827 2.24255L1.7516 3.28255L2.45694 3.99188L3.50294 2.95188L2.79827 2.24255ZM5.77027 5.86921C5.41694 5.51455 5.41694 5.51455 5.41694 5.51588H5.41561L5.4136 5.51855C5.38213 5.55067 5.35378 5.58572 5.32894 5.62321C5.29294 5.67655 5.2536 5.74655 5.22027 5.83521C5.13909 6.06409 5.11887 6.31016 5.1616 6.54921C5.25094 7.12588 5.64827 7.88788 6.66561 8.89988L7.37094 8.19055C6.41827 7.24388 6.19161 6.66788 6.1496 6.39588C6.1296 6.26655 6.15027 6.20255 6.15627 6.18788C6.15961 6.17855 6.16094 6.17788 6.15627 6.18388C6.15039 6.19313 6.1437 6.20183 6.13627 6.20988L6.1296 6.21655C6.12745 6.21862 6.12523 6.22062 6.12294 6.22255L5.7696 5.86921H5.77027ZM6.66561 8.89988C7.68361 9.91188 8.4496 10.3065 9.02694 10.3945C9.32227 10.4399 9.56027 10.4039 9.74094 10.3365C9.84197 10.2992 9.93646 10.2461 10.0209 10.1792C10.0324 10.1696 10.0435 10.1596 10.0543 10.1492L10.0589 10.1452L10.0609 10.1432L10.0616 10.1419C10.0616 10.1419 10.0623 10.1412 9.70961 9.78655C9.35627 9.43188 9.35827 9.43121 9.35827 9.43121L9.3596 9.42988L9.36094 9.42855L9.36494 9.42521L9.3716 9.41855C9.37962 9.41135 9.38808 9.40467 9.39694 9.39855C9.4036 9.39388 9.4016 9.39588 9.39227 9.39988C9.3756 9.40588 9.31027 9.42655 9.17894 9.40655C8.90294 9.36388 8.32294 9.13721 7.37094 8.19055L6.66561 8.89988ZM5.6256 2.48655C4.9456 1.57988 3.6096 1.43588 2.79827 2.24255L3.50294 2.95188C3.8576 2.59921 4.48694 2.63588 4.82494 3.08721L5.62494 2.48655H5.6256ZM2.14427 4.68321C2.13094 4.45255 2.23694 4.21121 2.45694 3.99255L1.75094 3.28321C1.39294 3.63921 1.11094 4.14321 1.14494 4.73921L2.14427 4.68321ZM11.9576 12.7232C11.7749 12.9059 11.5776 13.0085 11.3809 13.0265L11.4736 14.0219C11.9636 13.9759 12.3643 13.7292 12.6629 13.4325L11.9576 12.7232ZM6.3136 6.03321C6.97027 5.38055 7.01894 4.34921 6.46627 3.61055L5.66561 4.20988C5.93427 4.56921 5.89427 5.04055 5.60894 5.32521L6.3136 6.03321ZM12.6603 10.4059C13.2049 10.7019 13.2896 11.3992 12.9049 11.7819L13.6103 12.4905C14.5036 11.6019 14.2283 10.1199 13.1369 9.52721L12.6603 10.4059ZM10.3663 9.83988C10.6223 9.58521 11.0343 9.52255 11.3863 9.71321L11.8636 8.83521C11.1409 8.44188 10.2449 8.55055 9.66094 9.13055L10.3663 9.83988Z" fill="black"/>
<path d="M3.50294 2.95188L3.14872 3.30477L3.85766 2.5995L3.50294 2.95188ZM10.0645 9.43433L9.71249 9.07966L9.00272 9.7841L9.35472 10.1388L10.0645 9.43433ZM9.65905 9.8371L10.0117 10.1918L10.7208 9.48666L10.3682 9.132L9.65905 9.8371ZM11.1854 9.03481L10.9468 9.47481L11.8258 9.95161L12.0644 9.51161L11.1854 9.03481ZM12.4589 9.7272L12.2203 10.1665L13.099 10.6439L13.3376 10.2046L12.4589 9.7272ZM12.6648 12.724L12.3115 12.37L11.6037 13.0764L11.9571 13.4304L12.6648 12.724ZM10.9291 13.5705L10.9758 14.0685L11.9714 13.9752L11.9248 13.4772L10.9291 13.5705ZM1.61628 4.212L1.11694 4.24L1.17293 5.23843L1.67226 5.21043L1.61628 4.212ZM5.60605 6.03143L5.95939 6.3861L6.66782 5.68033L6.31449 5.32566L5.60605 6.03143ZM6.36451 4.30953L6.76451 4.0102L6.16536 3.20956L5.76537 3.50889L6.36451 4.30953ZM4.92592 2.38697L4.52526 2.68697L5.12462 3.48745L5.52528 3.18745L4.92592 2.38697ZM2.79539 2.9501L3.14872 3.30477L3.85716 2.59899L3.50382 2.24433L2.79539 2.9501ZM7.37216 8.89777L7.72482 8.5431L7.01572 7.838L6.66305 8.19266L7.37216 8.89777ZM4.85122 9.99116L4.14589 10.6998L4.85466 11.4053L5.55999 10.6966L4.85122 9.99116ZM3.85766 2.5995L3.15299 1.89016L2.44355 2.59493L3.14822 3.30427L3.85766 2.5995ZM7.02016 9.25243L7.72549 8.5431L7.01639 7.838L6.31105 8.54733L7.02016 9.25243ZM9.70961 9.78655L10.4187 9.08144L10.418 9.08077L9.70961 9.78655ZM9.3576 9.43188L8.65128 8.72399L7.94528 9.42844L8.64783 10.1363L9.3576 9.43188ZM10.3663 9.83921L11.0703 10.5494L11.7819 9.84399L11.075 9.13377L10.3663 9.83921ZM11.3863 9.71321L10.91 10.5925L11.7879 11.0681L12.2648 10.1909L11.3863 9.71321ZM12.6596 10.4052L12.1819 11.2838L13.0613 11.7619L13.5386 10.8821L12.6596 10.4052ZM13.2576 12.1359L13.9667 11.4308L13.6735 11.1359H13.2576V12.1359ZM13.6103 12.4905L12.9018 13.1963L13.6071 13.9042L14.3155 13.1995L13.6103 12.4905ZM13.2569 12.1359V11.1359H10.8491L12.5485 12.8417L13.2569 12.1359ZM11.9576 12.7232L11.2522 12.0144L11.2505 12.0161L11.9576 12.7232ZM11.4736 14.0219L11.5666 15.0175L11.5671 15.0175L11.4736 14.0219ZM4.8536 10.6985V11.6985H5.27003L5.56337 11.403L4.8536 10.6985ZM4.85294 10.6985L4.14383 9.99344L2.44835 11.6985H4.85294V10.6985ZM3.50294 2.95188L4.20801 3.66102L4.20804 3.66098L3.50294 2.95188ZM2.10294 3.63721L1.39383 4.34232L1.39583 4.34432L2.10294 3.63721ZM1.75094 3.28321L2.45971 2.57778L1.75458 1.86932L1.04581 2.57413L1.75094 3.28321ZM2.1036 3.63788L1.3965 4.34499L2.81271 2.93278L2.1036 3.63788ZM10.0616 10.1412L9.35184 10.8456L10.0558 11.555L10.7656 10.8514L10.0616 10.1412ZM9.66027 9.12988L10.369 8.42444L9.66272 7.71478L8.95394 8.42199L9.66027 9.12988ZM11.3856 9.71255L10.507 9.23491L10.0294 10.1134L10.9079 10.5911L11.3856 9.71255ZM13.1363 9.52655L14.0153 10.0034L14.4917 9.12506L13.6138 8.64791L13.1363 9.52655ZM11.8629 8.83455L12.3404 7.95591L11.4619 7.47849L10.9844 8.35691L11.8629 8.83455ZM12.9043 11.7812L13.6137 11.0764L12.9084 10.3664L12.1989 11.0724L12.9043 11.7812ZM12.6623 13.4319L11.9532 14.137L12.6583 14.8461L13.3674 14.141L12.6623 13.4319ZM13.6089 12.4905L14.314 13.1996L15.0228 12.4949L14.3184 11.7858L13.6089 12.4905ZM11.3803 13.0259L11.4737 14.0215L11.3803 12.0259V13.0259ZM4.50027 11.0525L5.20538 10.3434L5.20532 10.3434L4.50027 11.0525ZM11.3796 13.0259V12.0259H10.2808L10.384 13.1198L11.3796 13.0259ZM2.1436 4.68255L3.14199 4.6257L3.08515 3.62751L2.08695 3.68415L2.1436 4.68255ZM6.12227 6.22388L5.41516 5.51677L6.82814 6.93222L6.12227 6.22388ZM5.6096 5.32455L6.31904 4.61978L5.61441 3.91048L4.90497 4.61497L5.6096 5.32455ZM5.41827 5.51455L4.71364 4.80497L4.00359 5.51007L4.70917 6.21965L5.41827 5.51455ZM6.12294 6.22321L6.83005 6.93032L7.53515 6.22521L6.83204 5.51811L6.12294 6.22321ZM6.4656 3.60988L7.06486 4.41044L7.86525 3.81131L7.26629 3.01079L6.4656 3.60988ZM5.6256 2.48721L6.42629 1.88813L5.82676 1.08685L5.02592 1.68697L5.6256 2.48721ZM5.66494 4.20921L4.86442 4.80853L5.46369 5.60898L6.26419 5.00977L5.66494 4.20921ZM2.79827 2.24255L3.50312 2.95191L3.50334 2.95169L2.79827 2.24255ZM1.7516 3.28255L1.04676 2.57319L0.337138 3.27829L1.0425 3.98765L1.7516 3.28255ZM2.45694 3.99188L1.74783 4.69699L2.45291 5.40605L3.16201 4.70102L2.45694 3.99188ZM5.77027 5.86921V6.86921H8.17807L6.47871 5.16344L5.77027 5.86921ZM5.41694 5.51588V6.51588H6.41694V5.51588H5.41694ZM5.41561 5.51588V4.51588H4.91565L4.61565 4.91582L5.41561 5.51588ZM5.4136 5.51855L6.12789 6.2184L6.17401 6.17133L6.21356 6.11861L5.4136 5.51855ZM5.32894 5.62321L6.15782 6.18271L6.16259 6.17551L5.32894 5.62321ZM5.22027 5.83521L4.28423 5.48332L4.28093 5.4921L4.2778 5.50093L5.22027 5.83521ZM5.1616 6.54921L6.14982 6.39613L6.14804 6.38467L6.146 6.37325L5.1616 6.54921ZM6.66561 8.89988L5.96036 9.60884L5.96059 9.60907L6.66561 8.89988ZM7.37094 8.19055L8.07606 7.48146L8.07581 7.48121L7.37094 8.19055ZM6.1496 6.39588L7.13789 6.24328L7.13786 6.24306L6.1496 6.39588ZM6.15627 6.18788L7.08182 6.56651L7.0904 6.54555L7.09801 6.52422L6.15627 6.18788ZM6.15627 6.18388L5.36692 5.56994L5.33786 5.60731L5.31246 5.64725L6.15627 6.18388ZM6.13627 6.20988L6.84336 6.917L6.85767 6.90269L6.87139 6.88782L6.13627 6.20988ZM6.1296 6.21655L6.82283 6.93727L6.82983 6.93054L6.83669 6.92367L6.1296 6.21655ZM6.12294 6.22255L5.41583 6.92965L6.06478 7.5786L6.76691 6.9876L6.12294 6.22255ZM5.7696 5.86921V4.86921H3.35539L5.0625 6.57632L5.7696 5.86921ZM9.02694 10.3945L9.17866 9.40612L9.17762 9.40597L9.02694 10.3945ZM9.74094 10.3365L9.39385 9.39871L9.39171 9.39951L9.74094 10.3365ZM10.0209 10.1792L10.6415 10.9634L10.652 10.955L10.6624 10.9464L10.0209 10.1792ZM10.0543 10.1492L9.40351 9.38994L9.38047 9.40968L9.35867 9.43079L10.0543 10.1492ZM10.0589 10.1452L10.7097 10.9045L10.7389 10.8795L10.766 10.8523L10.0589 10.1452ZM10.0609 10.1432L10.768 10.8503L10.8829 10.7355L10.9555 10.5903L10.0609 10.1432ZM10.0616 10.1419L9.35454 9.43473L9.2397 9.54956L9.16709 9.69484L10.0616 10.1419ZM9.35827 9.43121L9.67454 10.3799L9.89847 10.3052L10.0654 10.1383L9.35827 9.43121ZM9.3596 9.42988L10.0667 10.137L10.0669 10.1368L9.3596 9.42988ZM9.36094 9.42855L8.72085 8.66025L8.68586 8.6894L8.65366 8.72161L9.36094 9.42855ZM9.36494 9.42521L10.005 10.1935L10.0399 10.1644L10.072 10.1323L9.36494 9.42521ZM9.3716 9.41855L8.70359 8.6744L8.68355 8.69239L8.6645 8.71144L9.3716 9.41855ZM9.39694 9.39855L9.96574 10.221L9.9704 10.2178L9.39694 9.39855ZM9.39227 9.39988L9.73099 10.3408L9.75891 10.3307L9.78619 10.319L9.39227 9.39988ZM9.17894 9.40655L9.02616 10.3948L9.02839 10.3951L9.17894 9.40655ZM5.6256 2.48655V3.48655H7.6256L6.4256 1.88655L5.6256 2.48655ZM5.62494 2.48655V1.48655H5.29131L5.02451 1.68687L5.62494 2.48655ZM2.14427 4.68321L2.20022 5.68165L3.20041 5.6256L3.1426 4.62551L2.14427 4.68321ZM2.45694 3.99255L3.16189 4.7018L3.87163 3.99636L3.16571 3.28711L2.45694 3.99255ZM11.3809 13.0265L11.2898 12.0307L10.2924 12.122L10.3852 13.1192L11.3809 13.0265ZM12.6629 13.4325L13.3677 14.142L14.0775 13.4369L13.372 12.7274L12.6629 13.4325ZM6.46627 3.61055L7.26696 3.01147L6.66776 2.2106L5.86702 2.80999L6.46627 3.61055ZM5.66561 4.20988L5.06635 3.40932L4.26623 4.00824L4.86471 4.80869L5.66561 4.20988ZM5.60894 5.32521L4.90266 4.61728L4.19557 5.32272L4.90016 6.03065L5.60894 5.32521ZM12.6603 10.4059L11.7813 9.92904L11.3048 10.8074L12.1828 11.2845L12.6603 10.4059ZM12.9049 11.7819L12.1997 11.0729L11.4906 11.7784L12.1962 12.4873L12.9049 11.7819ZM13.1369 9.52721L13.6142 8.64844L12.735 8.17099L12.2579 9.05037L13.1369 9.52721ZM10.3663 9.83988L9.65717 10.545L10.3624 11.2542L11.0715 10.5488L10.3663 9.83988ZM11.8636 8.83521L12.7422 9.31285L13.2196 8.43471L12.3417 7.95689L11.8636 8.83521ZM9.66094 9.13055L8.95627 8.42101L8.2463 9.12612L8.95183 9.83565L9.66094 9.13055ZM12.5485 12.841L12.9012 13.1957L14.3194 11.7854L13.9667 11.4308L12.5485 12.841ZM14.3187 11.7848L13.9654 11.4301L12.5485 12.8417L12.9018 13.1963L14.3187 11.7848ZM13.2569 13.1359H13.2576V11.1359H13.2569V13.1359ZM5.56337 11.403L5.91538 11.0483L4.49583 9.63945L4.14383 9.99411L5.56337 11.403ZM4.4965 9.63878L4.14383 9.99344L5.56204 11.4037L5.91471 11.049L4.4965 9.63878ZM4.85294 11.6985H4.8536V9.69855H4.85294V11.6985ZM2.81205 2.93211L2.46005 2.57811L1.04183 3.98832L1.39383 4.34232L2.81205 2.93211ZM1.04183 3.98832L1.3945 4.34299L2.81271 2.93278L2.46004 2.57811L1.04183 3.98832ZM2.81071 2.93077L2.81004 2.93011L1.39583 4.34432L1.3965 4.34499L2.81071 2.93077ZM10.7656 10.8514L11.0703 10.5494L9.66228 9.12901L9.35761 9.43101L10.7656 10.8514ZM11.075 9.13377L10.369 8.42444L8.9515 9.83532L9.6575 10.5447L11.075 9.13377ZM8.95394 8.42199L8.65128 8.72399L10.0639 10.1398L10.3666 9.83777L8.95394 8.42199ZM8.64783 10.1363L9.35184 10.8456L10.7714 9.43678L10.0674 8.72745L8.64783 10.1363ZM10.9079 10.5911L12.1819 11.2838L13.1373 9.52667L11.8633 8.834L10.9079 10.5911ZM13.5386 10.8821L14.0153 10.0034L12.2573 9.04971L11.7806 9.92837L13.5386 10.8821ZM13.6138 8.64791L12.3404 7.95591L11.3854 9.71318L12.6588 10.4052L13.6138 8.64791ZM10.9844 8.35691L10.507 9.23491L12.2642 10.1902L12.7415 9.31218L10.9844 8.35691ZM12.1989 11.0724L11.2522 12.0144L12.663 13.4321L13.6096 12.4901L12.1989 11.0724ZM11.2485 13.4283L11.9532 14.137L13.3714 12.7268L12.6667 12.0181L11.2485 13.4283ZM13.3674 14.141L14.314 13.1996L12.9038 11.7814L11.9572 12.7228L13.3674 14.141ZM14.3184 11.7858L13.6137 11.0764L12.1948 12.486L12.8995 13.1953L14.3184 11.7858ZM11.2869 12.0303C10.5607 12.0984 8.37189 12.0814 5.91061 9.63468L4.5006 11.0531C7.45532 13.9903 10.2665 14.1347 11.4737 14.0215L11.2869 12.0303ZM3.79517 11.7617C6.99699 14.9454 10.1211 15.1526 11.5666 15.0175L11.3806 13.0262C10.4141 13.1165 7.91288 13.0357 5.20538 10.3434L3.79517 11.7617ZM12.4692 13.9279L12.3752 12.9319L10.384 13.1198L10.478 14.1158L12.4692 13.9279ZM11.3796 14.0259H11.3803V12.0259H11.3796V14.0259ZM5.91079 9.63485C3.50762 7.24472 3.18153 5.32013 3.14199 4.6257L1.14522 4.7394C1.21235 5.9183 1.74226 8.30971 4.50042 11.0529L5.91079 9.63485ZM2.08695 3.68415L1.08829 3.74082L1.20159 5.73761L2.20026 5.68094L2.08695 3.68415ZM0.146534 4.79569C0.22692 6.21691 0.858971 8.84248 3.79522 11.7617L5.20532 10.3434C2.62424 7.77728 2.19629 5.61885 2.14334 4.68274L0.146534 4.79569ZM6.82814 6.93222L7.01948 6.74155L5.60773 5.32488L5.4164 5.51554L6.82814 6.93222ZM7.02304 5.32845L6.31904 4.61978L4.90017 6.02931L5.60417 6.73798L7.02304 5.32845ZM4.90497 4.61497L4.71364 4.80497L6.1229 6.22412L6.31424 6.03412L4.90497 4.61497ZM4.70917 6.21965L5.41383 6.92832L6.83204 5.51811L6.12738 4.80944L4.70917 6.21965ZM5.41583 5.51611L5.41516 5.51677L6.82938 6.93099L6.83005 6.93032L5.41583 5.51611ZM7.26629 3.01079L6.42629 1.88813L4.82492 3.0863L5.66492 4.20897L7.26629 3.01079ZM5.02592 1.68697L4.22526 2.28697L5.42462 3.88745L6.22528 3.28745L5.02592 1.68697ZM4.02442 3.68653L4.86442 4.80853L6.46545 3.6099L5.62545 2.4879L4.02442 3.68653ZM6.26419 5.00977L7.06486 4.41044L5.86635 2.80932L5.06569 3.40865L6.26419 5.00977ZM2.09343 1.53319L1.04676 2.57319L2.45645 3.99191L3.50312 2.95191L2.09343 1.53319ZM1.0425 3.98765L1.74783 4.69699L3.16604 3.28678L2.46071 2.57744L1.0425 3.98765ZM3.16201 4.70102L4.20801 3.66102L2.79787 2.24274L1.75187 3.28274L3.16201 4.70102ZM6.47871 5.16344C6.30256 4.98662 6.21324 4.89697 6.16821 4.85194C6.1477 4.83143 6.13079 4.81457 6.11865 4.80279C6.11513 4.79938 6.10892 4.79339 6.10142 4.78639C6.09736 4.7826 6.07755 4.76402 6.05118 4.74244C6.03937 4.73276 6.00718 4.70667 5.96289 4.67783C5.95363 4.67179 5.79841 4.56284 5.56991 4.52749C5.43114 4.50602 5.18639 4.49966 4.93075 4.6419C4.66695 4.78869 4.53917 5.01105 4.48256 5.15951C4.43129 5.29397 4.42216 5.40711 4.41949 5.44444C4.41773 5.46911 4.41725 5.48878 4.41708 5.49915C4.41699 5.5047 4.41696 5.50917 4.41695 5.51177C4.41694 5.5128 4.41694 5.51434 4.41694 5.51486C4.41694 5.51537 4.41694 5.51588 4.41694 5.51588H6.41694C6.41694 5.50755 6.41742 5.54489 6.41439 5.5872C6.41172 5.62449 6.40259 5.7376 6.35134 5.87203C6.29474 6.02046 6.16698 6.2428 5.9032 6.38957C5.64759 6.5318 5.40286 6.52544 5.26414 6.50398C5.03572 6.46864 4.88064 6.35974 4.87156 6.35384C4.82747 6.32512 4.79554 6.29922 4.78407 6.28983C4.7584 6.26881 4.73962 6.25115 4.73711 6.24881C4.73117 6.24326 4.72703 6.23924 4.72627 6.23851C4.72517 6.23744 4.73034 6.2425 4.754 6.26615C4.7973 6.30945 4.88465 6.39714 5.06183 6.57499L6.47871 5.16344ZM5.41694 4.51588H5.41561V6.51588H5.41694V4.51588ZM4.61565 4.91582L4.61365 4.91849L6.21356 6.11861L6.21556 6.11594L4.61565 4.91582ZM4.69932 4.81869C4.62347 4.89611 4.55515 4.98057 4.49529 5.07092L6.16259 6.17551C6.15241 6.19087 6.14079 6.20524 6.12789 6.2184L4.69932 4.81869ZM4.50009 5.06374C4.4255 5.17425 4.34811 5.31341 4.28423 5.48332L6.15631 6.18711C6.15784 6.18304 6.1589 6.181 6.15907 6.18068C6.15924 6.18034 6.15888 6.18107 6.15779 6.18269L4.50009 5.06374ZM4.2778 5.50093C4.13861 5.89337 4.10394 6.31528 4.17721 6.72517L6.146 6.37325C6.13381 6.30503 6.13958 6.23481 6.16274 6.1695L4.2778 5.50093ZM4.17339 6.7023C4.31004 7.58437 4.87796 8.53212 5.96036 9.60884L7.37085 8.19092C6.41858 7.24364 6.19184 6.66739 6.14982 6.39613L4.17339 6.7023ZM8.07581 7.48121C7.18855 6.59954 7.13268 6.20952 7.13789 6.24328L5.16132 6.54848C5.25053 7.12624 5.648 7.88823 6.66607 8.89988L8.07581 7.48121ZM7.13786 6.24306C7.14185 6.2689 7.15339 6.39156 7.08182 6.56651L5.23072 5.80925C5.14715 6.01354 5.11736 6.26419 5.16135 6.5487L7.13786 6.24306ZM7.09801 6.52422C7.0928 6.53881 7.08805 6.55086 7.08472 6.55905C7.08402 6.56076 7.08349 6.56206 7.0834 6.56227C7.08294 6.5634 7.08401 6.56081 7.08486 6.55872C7.08552 6.55711 7.08888 6.54889 7.09289 6.53842C7.09443 6.53441 7.10795 6.49981 7.1208 6.45485C7.12595 6.4368 7.1434 6.3754 7.15272 6.29449C7.15727 6.255 7.16467 6.17265 7.15313 6.06916C7.14349 5.98274 7.10785 5.75364 6.92374 5.53532C6.69354 5.26236 6.37086 5.16545 6.09918 5.1818C5.88176 5.19489 5.72742 5.27568 5.67033 5.30768C5.5482 5.37613 5.46996 5.45529 5.45721 5.46787C5.41113 5.51328 5.37918 5.55428 5.37742 5.55648C5.36852 5.56763 5.36176 5.57661 5.36028 5.57857C5.34996 5.59225 5.36225 5.57594 5.36692 5.56994L6.94562 6.79782C6.95263 6.78882 6.9665 6.77034 6.95713 6.78276C6.9559 6.7844 6.94934 6.79312 6.9406 6.80406C6.93901 6.80606 6.90718 6.84691 6.8612 6.89223C6.84848 6.90476 6.77029 6.98389 6.64818 7.05233C6.59111 7.08432 6.43678 7.1651 6.21937 7.17819C5.94769 7.19455 5.62502 7.09764 5.39483 6.82468C5.21072 6.60637 5.17509 6.37728 5.16546 6.29088C5.15391 6.18739 5.16132 6.10506 5.16586 6.0656C5.17518 5.98473 5.19261 5.92339 5.19775 5.90541C5.21055 5.8606 5.224 5.82621 5.22544 5.82246C5.22935 5.81226 5.23258 5.80437 5.23307 5.80314C5.23377 5.80144 5.23465 5.7993 5.23397 5.80095C5.23368 5.80167 5.23291 5.80354 5.23195 5.8059C5.22758 5.81665 5.22141 5.83229 5.21453 5.85154L7.09801 6.52422ZM5.31246 5.64725C5.33854 5.60623 5.36823 5.56765 5.40115 5.53194L6.87139 6.88782C6.91917 6.83601 6.96224 6.78002 7.00009 6.72051L5.31246 5.64725ZM5.42918 5.50276L5.42251 5.50942L6.83669 6.92367L6.84336 6.917L5.42918 5.50276ZM5.43638 5.49583C5.45011 5.48262 5.46431 5.46983 5.47897 5.45749L6.76691 6.9876C6.78614 6.97141 6.80479 6.95462 6.82283 6.93727L5.43638 5.49583ZM6.83004 5.51544L6.47671 5.16211L5.0625 6.57632L5.41583 6.92965L6.83004 5.51544ZM5.7696 6.86921H5.77027V4.86921H5.7696V6.86921ZM5.96059 9.60907C7.04399 10.6861 7.99553 11.2489 8.87625 11.3831L9.17762 9.40597C8.90368 9.36421 8.32322 9.13767 7.37062 8.19069L5.96059 9.60907ZM8.87522 11.383C9.33397 11.4534 9.74477 11.4023 10.0902 11.2736L9.39171 9.39951C9.37578 9.40545 9.31057 9.42637 9.17866 9.40612L8.87522 11.383ZM10.088 11.2744C10.2877 11.2005 10.4745 11.0955 10.6415 10.9634L9.40041 9.39503C9.39843 9.39659 9.39622 9.39784 9.39385 9.39871L10.088 11.2744ZM10.6624 10.9464C10.6925 10.9212 10.7217 10.895 10.7499 10.8676L9.35867 9.43079C9.3654 9.42427 9.37235 9.41802 9.3795 9.41204L10.6624 10.9464ZM10.705 10.9085L10.7097 10.9045L9.40817 9.38594L9.40351 9.38994L10.705 10.9085ZM10.766 10.8523L10.768 10.8503L9.35383 9.43611L9.35183 9.43811L10.766 10.8523ZM10.9555 10.5903L10.9561 10.5889L9.16709 9.69484L9.16643 9.69617L10.9555 10.5903ZM10.0616 10.1419C10.7687 10.849 10.916 10.6615 11.0148 10.4443C11.032 10.3834 11.0583 10.223 11.0614 10.1237C11.0587 9.97325 11.0223 9.85956 11.0055 9.81166C10.97 9.71019 10.9258 9.63821 10.9144 9.6196C10.883 9.56834 10.8536 9.53133 10.8477 9.52382C10.8286 9.49946 10.8124 9.48129 10.8093 9.47784C10.7989 9.46608 10.7903 9.45699 10.7884 9.45501C10.7824 9.44861 10.7767 9.4428 10.7732 9.4392C10.7651 9.43079 10.752 9.41744 10.7296 9.39479C10.6843 9.3489 10.5952 9.25897 10.4187 9.08144L9.0005 10.4917C9.17664 10.6688 9.26355 10.7565 9.3061 10.7996C9.32766 10.8215 9.33644 10.8305 9.33917 10.8333C9.34111 10.8353 9.33818 10.8323 9.33349 10.8273C9.33228 10.826 9.32403 10.8173 9.31375 10.8057C9.31077 10.8024 9.29459 10.7843 9.27546 10.7599C9.26956 10.7524 9.24022 10.7154 9.20883 10.6642C9.19744 10.6456 9.1532 10.5736 9.1177 10.4721C9.10095 10.4242 9.06451 10.3105 9.06177 10.1601C9.0649 10.0607 9.09122 9.90033 9.10844 9.83942C9.20719 9.6223 9.35454 9.43473 10.0616 10.1419ZM10.418 9.08077C10.2418 8.90383 10.1561 8.81718 10.1152 8.77549C10.0941 8.75402 10.0877 8.74731 10.0879 8.74747C10.0882 8.74779 10.0896 8.74934 10.0919 8.75174C10.0938 8.75376 10.0984 8.75877 10.1045 8.76553C10.1069 8.76827 10.1248 8.78808 10.1457 8.81484C10.1506 8.82113 10.1868 8.86654 10.2236 8.93004C10.2331 8.94645 10.2973 9.05352 10.3326 9.20606C10.349 9.27714 10.3881 9.47444 10.3174 9.71418C10.2783 9.84677 10.2048 9.9933 10.0798 10.1235C10.0175 10.1832 9.91597 10.2613 9.88082 10.2838C9.78042 10.3377 9.67454 10.3799 9.35827 9.43121C9.042 8.48254 8.93612 8.52469 8.83572 8.57861C8.80057 8.60117 8.69909 8.67923 8.6367 8.73888C8.51173 8.86913 8.43826 9.01566 8.39914 9.14825C8.32841 9.38799 8.36752 9.58529 8.38395 9.65637C8.4192 9.80892 8.48343 9.916 8.49293 9.93241C8.52973 9.99594 8.56596 10.0414 8.57096 10.0478C8.59205 10.0747 8.6102 10.0949 8.61328 10.0983C8.62478 10.1112 8.63494 10.1219 8.63909 10.1262C8.64991 10.1376 8.66508 10.1532 8.68768 10.1763C8.7341 10.2236 8.82411 10.3146 9.00117 10.4923L10.418 9.08077ZM10.0654 10.1383L10.0667 10.137L8.6525 8.72277L8.65117 8.72411L10.0654 10.1383ZM10.0669 10.1368L10.0682 10.1355L8.65366 8.72161L8.65233 8.72294L10.0669 10.1368ZM10.001 10.1968L10.005 10.1935L8.72485 8.65691L8.72085 8.66025L10.001 10.1968ZM10.072 10.1323L10.0787 10.1257L8.6645 8.71144L8.65783 8.71811L10.072 10.1323ZM10.0396 10.1627C10.0163 10.1837 9.99158 10.2032 9.96573 10.221L8.82814 8.57607C8.78458 8.60619 8.74298 8.63904 8.70359 8.6744L10.0396 10.1627ZM9.9704 10.2178C9.96329 10.2228 9.95697 10.227 9.95834 10.2261C9.95879 10.2258 9.96003 10.2249 9.96159 10.2239C9.96299 10.2229 9.96609 10.2208 9.96999 10.2181C9.97309 10.216 9.9815 10.2101 9.99205 10.2024C9.99321 10.2015 10.0315 10.1741 10.0746 10.1348C10.0878 10.1228 10.1106 10.1014 10.1369 10.0728C10.1568 10.0511 10.2121 9.9899 10.2649 9.8992C10.2831 9.86807 10.486 9.54212 10.3604 9.11419C10.191 8.53716 9.66854 8.42231 9.53032 8.40426C9.37013 8.38335 9.24459 8.4076 9.21256 8.41374C9.16191 8.42345 9.12262 8.4351 9.10245 8.44141C9.06129 8.45428 9.03007 8.46705 9.01884 8.47169C8.99298 8.48238 8.97319 8.49189 8.96893 8.49393C8.96152 8.49748 8.95575 8.50036 8.95341 8.50153C8.94323 8.50661 8.97002 8.49288 8.99835 8.48074L9.78619 10.319C9.82385 10.3029 9.85631 10.2861 9.8478 10.2904C9.84557 10.2915 9.83988 10.2944 9.83254 10.2979C9.82836 10.2999 9.80863 10.3094 9.7828 10.32C9.7716 10.3247 9.74039 10.3374 9.69925 10.3503C9.67908 10.3566 9.63979 10.3683 9.58915 10.378C9.55713 10.3841 9.43159 10.4083 9.2714 10.3874C9.13318 10.3694 8.61073 10.2545 8.44135 9.67751C8.31573 9.24958 8.51865 8.92363 8.53678 8.89251C8.58961 8.8018 8.64488 8.74059 8.66484 8.71889C8.69115 8.69029 8.7139 8.66894 8.72706 8.65695C8.77018 8.61762 8.80843 8.59024 8.80954 8.58942C8.82004 8.58173 8.82838 8.57594 8.83138 8.57386C8.8352 8.57121 8.8382 8.56918 8.83948 8.56831C8.84093 8.56733 8.84203 8.56659 8.84233 8.56639C8.84249 8.56628 8.83392 8.57201 8.82348 8.57932L9.9704 10.2178ZM9.05355 8.45899C9.11149 8.43814 9.17214 8.42351 9.23099 8.41774C9.28506 8.41244 9.31946 8.41642 9.32949 8.41794L9.02839 10.3951C9.32499 10.4403 9.55846 10.4029 9.73099 10.3408L9.05355 8.45899ZM9.33171 8.41829C9.35707 8.42221 8.96176 8.3622 8.07606 7.48146L6.66582 8.89964C7.68412 9.91223 8.4488 10.3056 9.02616 10.3948L9.33171 8.41829ZM6.4256 1.88655C5.40643 0.527643 3.36458 0.269339 2.09321 1.5334L3.50334 2.95169C3.85462 2.60242 4.48478 2.63212 4.8256 3.08655L6.4256 1.88655ZM4.20804 3.66098C4.1586 3.71014 4.10634 3.7163 4.08238 3.71419C4.05313 3.71161 4.03178 3.69636 4.02451 3.68665L5.62536 2.48778C4.94173 1.57492 3.60518 1.43998 2.79783 2.24278L4.20804 3.66098ZM5.42536 3.88689L6.22536 3.28623L5.02451 1.68687L4.22451 2.28753L5.42536 3.88689ZM5.62494 3.48655H5.6256V1.48655H5.62494V3.48655ZM3.1426 4.62551C3.14614 4.68663 3.13195 4.72833 3.12529 4.74315C3.1197 4.75561 3.12418 4.73929 3.16189 4.7018L1.75198 3.2833C1.39154 3.64155 1.11159 4.14668 1.14594 4.74092L3.1426 4.62551ZM3.16571 3.28711L2.45971 2.57778L1.04217 3.98865L1.74817 4.69799L3.16571 3.28711ZM1.04581 2.57413C0.551081 3.0661 0.0916278 3.83322 0.146561 4.79617L2.14331 4.68226C2.13025 4.45321 2.23479 4.21233 2.45606 3.9923L1.04581 2.57413ZM1.20089 5.73765L2.20022 5.68165L2.08832 3.68478L1.08899 3.74078L1.20089 5.73765ZM11.2505 12.0161C11.2194 12.0472 11.2044 12.054 11.21 12.0511C11.2169 12.0474 11.2444 12.0349 11.2898 12.0307L11.4721 14.0224C11.9608 13.9777 12.3644 13.7306 12.6647 13.4303L11.2505 12.0161ZM10.3852 13.1192L10.4779 14.1146L12.4693 13.9292L12.3766 12.9338L10.3852 13.1192ZM11.5671 15.0175C12.3488 14.9441 12.954 14.5529 13.3677 14.142L11.9582 12.7231C11.7745 12.9055 11.5784 13.0076 11.3801 13.0263L11.5671 15.0175ZM13.372 12.7274L12.6667 12.0181L11.2485 13.4283L11.9538 14.1377L13.372 12.7274ZM7.01855 6.74248C8.04711 5.72018 8.10237 4.12803 7.26696 3.01147L5.66558 4.20962C5.93551 4.5704 5.89343 5.04092 5.60866 5.32395L7.01855 6.74248ZM5.86702 2.80999L5.06635 3.40932L6.26486 5.01044L7.06552 4.41111L5.86702 2.80999ZM4.86471 4.80869C4.84761 4.78581 4.82159 4.69816 4.90266 4.61728L6.31522 6.03315C6.96695 5.38294 7.02093 4.35261 6.4665 3.61107L4.86471 4.80869ZM4.90016 6.03065L5.60483 6.73865L7.02238 5.32778L6.31771 4.61978L4.90016 6.03065ZM12.1828 11.2845C12.183 11.2846 12.18 11.283 12.1753 11.2788C12.1708 11.2747 12.1658 11.2693 12.1612 11.2626C12.1521 11.2495 12.146 11.2344 12.1435 11.2183C12.1391 11.1905 12.1434 11.1289 12.1997 11.0729L13.6102 12.4908C14.493 11.6126 14.2409 10.1267 13.1378 9.52725L12.1828 11.2845ZM12.1962 12.4873L12.9015 13.196L14.319 11.7851L13.6137 11.0764L12.1962 12.4873ZM14.3155 13.1995C15.7215 11.8009 15.2459 9.53457 13.6142 8.64844L12.6597 10.406C13.2106 10.7052 13.2858 11.4028 12.905 11.7816L14.3155 13.1995ZM12.2579 9.05037L11.7813 9.92904L13.5393 10.8827L14.0159 10.0041L12.2579 9.05037ZM11.0715 10.5488C11.0008 10.6192 10.929 10.6028 10.91 10.5925L11.8626 8.83392C11.1396 8.4423 10.2438 8.55121 9.66101 9.13093L11.0715 10.5488ZM12.2648 10.1909L12.7422 9.31285L10.985 8.35758L10.5077 9.23558L12.2648 10.1909ZM12.3417 7.95689C11.2486 7.36196 9.86805 7.51547 8.95627 8.42101L10.3656 9.84008C10.6218 9.58562 11.0333 9.52181 11.3855 9.71354L12.3417 7.95689ZM8.95183 9.83565L9.65717 10.545L11.0754 9.13478L10.37 8.42544L8.95183 9.83565Z" fill="black" mask="url(#path-1-inside-1_1_15569)"/>
</svg>
