<svg width="12" height="14" viewBox="0 0 12 14" fill="none" xmlns="http://www.w3.org/2000/svg">
<path d="M6.23818 0C7.71581 0 9.13293 0.586988 10.1778 1.63183C11.2226 2.67668 11.8096 4.09379 11.8096 5.57143C11.8096 7.92571 10.1553 10.4914 6.88961 13.296C6.70802 13.452 6.4765 13.5377 6.23711 13.5375C5.99772 13.5372 5.76635 13.4512 5.58503 13.2949L5.36903 13.1074C2.24789 10.376 0.666748 7.87314 0.666748 5.57143C0.666748 4.09379 1.25374 2.67668 2.29858 1.63183C3.34343 0.586988 4.76054 0 6.23818 0ZM6.23818 0.857143C4.98787 0.857143 3.78877 1.35382 2.90467 2.23793C2.02057 3.12203 1.52389 4.32112 1.52389 5.57143C1.52389 7.57257 2.97989 9.87828 5.93189 12.4611L6.14503 12.6457C6.17095 12.668 6.204 12.6803 6.23818 12.6803C6.27236 12.6803 6.3054 12.668 6.33132 12.6457C9.42618 9.98743 10.9525 7.62 10.9525 5.57143C10.9525 4.95234 10.8305 4.33931 10.5936 3.76735C10.3567 3.19539 10.0094 2.67569 9.57168 2.23793C9.13392 1.80016 8.61422 1.45291 8.04226 1.216C7.47029 0.979082 6.85727 0.857143 6.23818 0.857143ZM6.23818 3.42857C6.8065 3.42857 7.35154 3.65434 7.75341 4.0562C8.15527 4.45806 8.38103 5.00311 8.38103 5.57143C8.38103 6.13975 8.15527 6.68479 7.75341 7.08666C7.35154 7.48852 6.8065 7.71429 6.23818 7.71429C5.66986 7.71429 5.12481 7.48852 4.72295 7.08666C4.32108 6.68479 4.09532 6.13975 4.09532 5.57143C4.09532 5.00311 4.32108 4.45806 4.72295 4.0562C5.12481 3.65434 5.66986 3.42857 6.23818 3.42857ZM6.23818 4.28571C5.89718 4.28571 5.57016 4.42117 5.32904 4.66229C5.08792 4.90341 4.95246 5.23044 4.95246 5.57143C4.95246 5.91242 5.08792 6.23945 5.32904 6.48057C5.57016 6.72168 5.89718 6.85714 6.23818 6.85714C6.57917 6.85714 6.9062 6.72168 7.14731 6.48057C7.38843 6.23945 7.52389 5.91242 7.52389 5.57143C7.52389 5.23044 7.38843 4.90341 7.14731 4.66229C6.9062 4.42117 6.57917 4.28571 6.23818 4.28571Z" fill="black"/>
</svg>
