<svg width="42" height="28" viewBox="0 0 42 28" fill="none" xmlns="http://www.w3.org/2000/svg">
<path d="M16.8 20L27.699 14L16.8 8V20ZM41.076 4.34C41.349 5.28 41.538 6.54 41.664 8.14C41.811 9.74 41.874 11.12 41.874 12.32L42 14C42 18.38 41.664 21.6 41.076 23.66C40.551 25.46 39.333 26.62 37.443 27.12C36.456 27.38 34.65 27.56 31.878 27.68C29.148 27.82 26.649 27.88 24.339 27.88L21 28C12.201 28 6.72 27.68 4.557 27.12C2.667 26.62 1.449 25.46 0.924 23.66C0.651 22.72 0.462 21.46 0.336 19.86C0.189 18.26 0.126 16.88 0.126 15.68L0 14C0 9.62 0.336 6.4 0.924 4.34C1.449 2.54 2.667 1.38 4.557 0.88C5.544 0.62 7.35 0.44 10.122 0.32C12.852 0.18 15.351 0.12 17.661 0.12L21 0C29.799 0 35.28 0.32 37.443 0.88C39.333 1.38 40.551 2.54 41.076 4.34Z" fill="#ED1C24"/>
<path d="M16.8 20L27.699 14L16.8 8V20Z" fill="white"/>
</svg>
