<svg width="46" height="46" viewBox="0 0 46 46" fill="none" xmlns="http://www.w3.org/2000/svg">
<circle cx="23" cy="23" r="23" fill="#F8F8F8"/>
<g clip-path="url(#clip0_1_15428)">
<path d="M19.7181 33.2662L19.3424 32.8949L19.1418 32.7022L14.7532 28.4427L14.7559 28.44L10.4965 24.3057L15.4661 19.4823L19.7205 23.6115L29.8658 13.7646L34.8354 18.5882L24.6902 28.4349L24.117 28.9968L19.7181 33.2662ZM17.0469 28.4327L19.7177 31.0249L19.7228 31.02L19.7255 31.0227L22.3888 28.4378L22.962 27.876L32.5315 18.5882L29.8658 16.0009L19.7205 25.8477L15.4661 21.7184L12.8005 24.3057L17.0497 28.4299L17.0469 28.4327Z" fill="black" stroke="white" stroke-width="0.541667"/>
</g>
<defs>
<clipPath id="clip0_1_15428">
<rect width="26.0667" height="25.3" fill="white" transform="translate(9.58325 10.7333)"/>
</clipPath>
</defs>
</svg>
